<svg width="298" height="690" viewBox="0 0 298 690" fill="none" xmlns="http://www.w3.org/2000/svg">
<path d="M32.4267 502.382L37.3606 508.549L51.3401 504.438V492.925L39.4164 479.768L28.3151 483.057L18.4473 489.636V502.382L24.6147 508.549L32.4267 502.382Z" fill="#1C2135"/>
<path d="M258.977 425.906C258.977 483.357 203.475 525.818 142.619 525.818C81.7619 525.818 32.4277 483.357 32.4277 425.906C32.4277 372.729 74.6953 324.76 129.245 318.53C131.517 320.238 132.751 319.416 136.862 316.949C138.091 316.911 140.152 323.939 141.385 324.35C147.296 325.663 152.984 326.766 159.065 326.817C160.85 326.832 165.232 336.685 165.232 336.685L165.644 326.406L171.811 335.451C171.811 335.451 171.229 328.873 174.689 328.05C178.274 327.198 189.902 333.807 197.303 338.74C200.029 339.319 195.537 330.528 196.069 330.807C229.91 348.562 258.977 386.765 258.977 425.906Z" fill="#1C2135"/>
<path d="M86.0014 436.534L94.2463 436.824L93.8505 448.067L85.6056 447.777L85.1059 461.971L70.9584 461.473L71.4581 447.279L42.2262 446.25L42.5808 436.178L74.1659 393.012L87.517 393.482L86.0014 436.534ZM71.8539 436.036L72.2629 424.418C72.3168 422.887 72.4733 420.219 72.7323 416.414C73.0226 412.609 73.2434 410.334 73.3947 409.589L73.02 409.576C71.6406 412.342 70.1628 414.791 68.5868 416.924L55.3641 435.455L71.8539 436.036ZM99.5804 427.865C99.9971 416.029 102.243 407.306 106.318 401.696C110.424 396.087 116.475 393.423 124.47 393.704C132.496 393.987 138.433 397.198 142.282 403.337C146.131 409.476 147.848 418.433 147.434 430.207C147.021 441.949 144.745 450.625 140.608 456.233C136.502 461.842 130.435 464.505 122.409 464.222C114.383 463.94 108.46 460.761 104.64 454.685C100.851 448.61 99.1648 439.671 99.5804 427.865ZM131.358 411.208C129.989 407.47 127.602 405.541 124.198 405.421C120.825 405.302 118.34 407.059 116.742 410.693C115.176 414.328 114.245 420.345 113.949 428.746C113.653 437.148 114.16 443.185 115.469 446.858C116.809 450.532 119.181 452.43 122.586 452.549C125.99 452.669 128.506 450.913 130.135 447.281C131.765 443.617 132.727 437.616 133.02 429.277C133.315 420.907 132.761 414.884 131.358 411.208ZM195.621 440.393L203.866 440.683L203.47 451.926L195.225 451.636L194.725 465.83L180.578 465.332L181.078 451.138L151.846 450.109L152.2 440.037L183.786 396.871L197.137 397.341L195.621 440.393ZM181.474 439.895L181.883 428.277C181.936 426.747 182.093 424.079 182.352 420.273C182.642 416.468 182.863 414.193 183.014 413.448L182.64 413.435C181.26 416.201 179.782 418.65 178.206 420.784L164.984 439.314L181.474 439.895Z" fill="url(#paint0_linear_361_3754)"/>
<path fill-rule="evenodd" clip-rule="evenodd" d="M150.808 127.355C150.808 127.355 135.95 126.588 122.237 130.403C122.237 130.403 93.2854 107.165 72.3333 92.308C61.6668 84.7445 57.8573 59.9276 21.6674 37.8327C16.5301 34.6962 10.6116 41.641 7.56886 47.3564C0.470585 60.6895 -1.96731 121.641 13.2878 160.884C22.1817 183.763 36.5083 209.639 49.8414 212.306C49.8414 212.306 41.9965 213.432 41.8415 218.401C41.5895 226.482 55.9365 228.306 63.1918 225.645C62.4375 220.057 62.0135 214.724 61.9191 209.639C57.1313 207.481 44.8264 209.531 46.4129 203.163C46.9811 200.883 48.3176 199.866 49.8414 198.217C49.8414 198.217 31.0279 191.687 31.5559 182.211C31.9891 174.438 44.3053 175.467 45.27 167.741C46.3337 159.223 28.9533 156.977 33.0797 149.45C36.3608 143.465 49.8414 144.498 49.8414 144.498C49.8414 144.498 28.9049 118.001 40.6987 113.26C45.1181 111.484 52.8953 113.26 52.8953 113.26C60.3682 139.509 69.287 155.932 69.287 155.932C69.287 155.932 66.8994 155.494 65.4775 155.932C61.153 157.262 73.4774 164.312 73.4774 164.312C65.4433 176.508 61.5823 191.496 61.9191 209.639C62.0135 214.724 62.4375 220.057 63.1918 225.645C57.4603 232.877 47.8822 230.595 50.6033 236.306C52.7305 240.77 56.767 237.692 59.746 241.639C59.746 241.639 50.262 249.157 55.5556 254.21C58.6162 257.132 64.3173 257.258 64.3173 257.258C64.3173 257.258 63.2706 262.082 60.8888 265.258C59.746 266.781 82.9837 269.448 82.9837 269.448C105.84 281.257 104.659 277.366 118.048 283.168C118.959 283.3 119.841 283.415 120.697 283.516C142.034 286.011 162.221 276.305 162.221 276.305L190.411 267.543L209.839 280.115L206.41 283.168L210.982 289.638L205.648 304.495L196.125 331.542L198.791 340.751L201.077 342.209L191.553 367.351C187.533 373.141 180.802 373.493 178.982 380.303C176.966 387.849 181.725 406.404 185.077 399.351C185.553 398.351 186.04 396.684 186.04 396.684C186.04 396.684 186.435 400.683 187.744 402.779C191.684 409.088 205.671 410.133 206.791 402.779C206.926 401.896 206.865 400.493 206.865 400.493C206.865 400.493 208.656 403.671 210.601 404.684C214.693 406.815 218.291 403.658 221.648 400.493C226.533 395.889 223.143 390.033 225.458 383.732C226.752 380.208 229.409 374.97 229.409 374.97L231.624 375.542C235.749 381.5 237.767 385.102 240.695 391.732C245.783 403.251 247.62 410.423 248.695 422.969C243.786 430.11 239.627 433.328 236.124 441.255C232.901 448.548 231.172 461.064 231.172 461.064L231.934 462.778C227.024 461.365 224.441 458.6 219.362 459.159C214.733 459.669 208.666 459.835 208.696 464.492C208.704 465.719 209.87 466.385 209.458 467.54C208.757 469.501 206.101 466.883 204.125 467.54C199.08 469.218 198.465 475.383 199.934 480.492C200.93 483.953 203.473 484.86 205.648 487.73C209.388 492.664 214.242 499.492 214.791 500.682L216.198 503.73L180.523 521.259C180.523 521.259 173.035 550.158 166.427 554.401C149.437 565.313 134.679 576.479 123.745 588.866L126.412 594.776C126.412 594.776 149.776 571.03 148.887 579.538C147.999 588.046 146.297 605.138 146.602 605.443C146.906 605.747 157.649 599.728 162.982 596.681C168.316 593.633 161.459 603.157 161.459 603.157C161.459 603.157 202.767 601.173 199.934 616.871C198.791 623.205 190.792 630.585 190.792 630.585C190.792 630.585 196.587 633.608 198.41 637.061C199.759 639.615 201.272 641.739 199.934 644.299C198.702 646.658 193.839 647.347 193.839 647.347L205.648 658.574C220.938 654.884 236.442 649.555 266.235 628.305C284.52 615.263 290.471 587.122 288.33 558.973C286.874 539.833 272.872 514.402 273.093 513.64C274.077 510.244 274.235 507.545 276.522 505.26C296.709 485.084 299.377 437.07 291.377 426.404C285.229 418.205 286.424 416.118 280.33 408.118C278.879 406.213 277.785 396.062 276.52 390.594C274.63 382.423 273.076 373.532 269.282 362.404C263.568 345.643 266.26 340.135 260.902 324.691C254.426 306.024 248.898 292.039 236.521 277.072C228.776 267.707 215.189 256.501 215.189 256.501C215.189 256.501 215.823 253.582 217.094 252.311C220.521 248.882 237.283 250.406 239.189 245.454C240.73 241.449 233.094 236.311 233.094 236.311C233.094 236.311 248.711 234.538 249.855 230.978C250.616 228.611 239.189 216.883 239.189 216.883C239.189 216.883 263.187 200.502 257.855 198.217C254.3 196.693 247.951 198.217 247.951 198.217C247.951 198.217 273.854 178.786 272.712 132.313C271.349 76.831 255.568 26.4046 211.761 3.93415C197.79 -3.23219 182.017 10.7783 175.951 25.2612C169.093 41.6361 167.57 59.9276 163.76 85.451C161.302 101.923 154.617 102.207 150.808 127.355ZM189.649 144.498C189.649 144.498 190.42 111.211 184.696 91.1652C184.436 90.2549 184.186 89.2857 183.952 88.2581C183.952 88.2581 187.86 79.6358 192.696 76.6892C205.401 68.949 203.363 113.26 203.363 113.26C203.363 113.26 219.449 97.1779 224.696 104.498C229.63 111.383 213.648 123.165 213.648 123.165C213.648 123.165 244.266 115.344 249.838 128.498C255.153 141.046 231.553 158.217 231.553 158.217C231.553 158.217 254.834 166.32 251.743 176.497C248.643 186.704 224.696 180.307 224.696 180.307L220.903 175.36C220.903 175.36 210.22 166.212 206.047 167.741C202.51 169.037 209.252 161.587 207.57 158.217C206.047 155.164 190.411 153.64 190.411 153.64C190.411 153.64 204.946 142.541 199.57 140.313C195.686 138.703 189.649 144.498 189.649 144.498ZM216.198 483.921C214.48 484.887 213.2 485.784 212.886 487.73C212.506 490.09 214.201 491.456 216.056 492.949L216.198 493.063C219.824 495.987 224.148 495.489 228.124 493.063C229.92 491.967 228.858 489.895 227.743 488.111C226.628 486.327 217.916 482.955 216.198 483.921ZM207.553 480.492C207.264 478.718 207.72 476.762 209.458 476.302C211.502 475.76 212.926 478.378 212.886 480.492C212.858 482.024 212.454 483.5 210.982 483.921C209.161 484.441 207.857 482.361 207.553 480.492ZM216.198 477.826C215.705 475.584 217.068 472.844 219.362 472.873C220.766 472.891 221.581 473.645 222.41 474.778C223.728 476.579 224.103 479.039 222.41 480.492C220.407 482.212 216.764 480.404 216.198 477.826ZM231.172 486.206C228.975 487.047 225.707 485.074 226.22 482.778C226.472 481.644 227.126 481.086 228.124 480.492C229.658 479.579 231.39 479.275 232.696 480.492C234.385 482.067 233.329 485.381 231.172 486.206Z" fill="#35E7F4"/>
<path fill-rule="evenodd" clip-rule="evenodd" d="M95.8869 523.036C100.998 522.926 101.642 522.669 105.428 519.233C78.7444 514.275 48.6496 478.085 48.6496 478.085C24.2517 471.222 33.9326 479.814 25.0309 480.751C17.793 481.513 9.31036 492.488 13.2216 498.656C23.1262 514.275 24.5235 505.276 31.888 508.561C47.9554 515.727 57.901 513.681 75.3158 516.179C81.2521 517.031 89.8913 523.166 95.8869 523.036ZM33.4118 502.846C32.6406 501.373 32.2214 500.263 32.6499 498.656C33.387 495.891 36.2829 495.553 39.1259 495.227C42.7765 494.81 46.7808 495.152 47.8877 498.656C48.4274 500.364 48.2613 501.603 47.5068 503.227C46.0172 506.434 42.6096 507.263 39.1259 506.656C36.4839 506.195 34.6553 505.223 33.4118 502.846ZM36.0784 492.561C35.6362 494.198 34.3198 494.93 32.6499 495.227C30.2123 495.662 26.8287 494.226 27.3166 491.799C27.6068 490.355 28.6048 489.651 29.9832 489.132C32.5395 488.171 36.7904 489.924 36.0784 492.561ZM27.6975 495.608C28.526 496.572 28.9371 497.388 28.8404 498.656C28.7242 500.178 26.8827 500.627 25.0366 500.311C25.3068 500.499 25.5618 500.712 25.7928 500.942C26.7947 501.936 27.3481 503.02 26.9357 504.37C26.2347 506.664 21.7697 505.82 20.8405 503.608C20.3187 502.366 20.2839 501.147 21.2215 500.18C21.6738 499.713 22.2251 499.515 22.8055 499.513C21.9696 499.017 21.3494 498.334 21.2215 497.513C21.0325 496.301 21.1667 495.381 21.9834 494.465C23.4983 492.767 26.2143 493.882 27.6975 495.608Z" fill="#35E7F4"/>
<path d="M42.9354 345.135C41.5129 354.131 49.0305 359.992 56.2685 359.611L66.935 350.849L65.4112 349.217L73.0301 349.326L83.6966 337.516C87.8622 332.904 97.1286 329.545 106.553 326.469C116.041 323.372 121.726 322.339 131.696 321.897C129.762 319.22 126.743 315.04 126.743 315.04V299.421L121.029 302.85L125.601 288.755L121.029 285.326L120.697 283.516C119.841 283.415 118.959 283.3 118.048 283.168C103.555 292.686 102.744 301.326 101.601 315.04C101.601 315.04 79.813 304.222 69.619 310.094C62.1442 314.399 60.7017 319.887 55.1257 326.469C50.1575 332.333 44.1358 337.544 42.9354 345.135Z" fill="#35E7F4"/>
<path d="M135.886 317.326C133.486 317.648 131.808 319.478 131.696 321.897C134.991 321.752 139.739 322.646 139.739 322.646L135.886 317.326Z" fill="#35E7F4"/>
<path d="M180.523 521.259C180.523 521.259 173.035 550.158 166.427 554.401C149.437 565.313 134.679 576.479 123.745 588.866M180.523 521.259C149.268 527.349 126.744 526.084 105.428 519.233M180.523 521.259C180.523 521.259 202.266 510.576 216.198 503.73M180.523 521.259L216.198 503.73M105.428 519.233C101.642 522.669 100.998 522.926 95.8869 523.037C89.8913 523.166 81.2521 517.031 75.3158 516.179C57.901 513.681 47.9554 515.727 31.888 508.561C24.5235 505.276 23.1262 514.275 13.2216 498.656C9.31036 492.488 17.793 481.513 25.0309 480.751C33.9326 479.814 24.2517 471.222 48.6496 478.085M105.428 519.233C78.7444 514.275 48.6496 478.085 48.6496 478.085M48.6496 478.085C37.3598 464.371 30.9661 440.796 33.4118 413.16C36.2467 381.126 56.2685 359.611 56.2685 359.611M56.2685 359.611C49.0305 359.992 41.5129 354.131 42.9354 345.135C44.1358 337.544 50.1575 332.333 55.1257 326.469C60.7017 319.887 62.1442 314.399 69.619 310.094C79.813 304.222 101.601 315.04 101.601 315.04C102.744 301.326 103.555 292.686 118.048 283.168M56.2685 359.611L66.935 350.849M56.2685 359.611L51.6972 354.659L48.2687 349.326L53.221 340.183M118.048 283.168C104.659 277.366 105.84 281.257 82.9837 269.448C82.9837 269.448 59.746 266.781 60.8888 265.258C63.2706 262.082 64.3173 257.258 64.3173 257.258C64.3173 257.258 58.6162 257.132 55.5556 254.21C50.262 249.157 59.746 241.639 59.746 241.639C56.767 237.692 52.7305 240.77 50.6033 236.306C47.8822 230.595 57.4603 232.877 63.1918 225.645M118.048 283.168C118.959 283.3 119.841 283.415 120.697 283.516M63.1918 225.645C55.9365 228.306 41.5895 226.482 41.8415 218.401C41.9965 213.432 49.8414 212.306 49.8414 212.306C36.5083 209.639 22.1817 183.763 13.2878 160.884C-1.96731 121.641 0.470585 60.6895 7.56886 47.3564C10.6116 41.641 16.5301 34.6962 21.6674 37.8327C57.8573 59.9276 61.6668 84.7445 72.3333 92.308C93.2854 107.165 122.237 130.403 122.237 130.403C135.95 126.588 150.808 127.355 150.808 127.355C154.617 102.207 161.302 101.923 163.76 85.451C167.57 59.9276 169.093 41.6361 175.951 25.2612C182.017 10.7783 197.79 -3.23219 211.761 3.93415C255.568 26.4046 271.349 76.831 272.712 132.313C273.854 178.786 247.951 198.217 247.951 198.217C247.951 198.217 254.3 196.693 257.855 198.217C263.187 200.502 239.189 216.883 239.189 216.883C239.189 216.883 250.616 228.611 249.855 230.978C248.711 234.538 233.094 236.311 233.094 236.311C233.094 236.311 240.73 241.449 239.189 245.454C237.283 250.406 220.521 248.882 217.094 252.311C215.823 253.582 215.189 256.501 215.189 256.501C215.189 256.501 228.776 267.707 236.521 277.072C248.898 292.039 254.426 306.024 260.902 324.691C266.26 340.135 263.568 345.643 269.282 362.404C273.076 373.532 274.63 382.423 276.52 390.594C277.785 396.062 278.879 406.213 280.33 408.118C286.424 416.118 285.229 418.205 291.377 426.404C299.377 437.07 296.709 485.084 276.522 505.26C274.235 507.545 274.077 510.244 273.093 513.64C272.872 514.402 286.874 539.833 288.33 558.973C290.471 587.122 284.52 615.263 266.235 628.305C236.442 649.555 220.938 654.884 205.648 658.574M63.1918 225.645C62.4375 220.057 62.0135 214.724 61.9191 209.639M77.9998 155.81C74.7269 155.81 69.287 155.932 69.287 155.932M162.221 276.305C162.221 276.305 142.034 286.011 120.697 283.516M162.221 276.305C163.363 275.543 165.219 273.136 165.219 273.136M162.221 276.305L190.411 267.543L209.839 280.114L206.41 283.168L210.982 289.638L205.648 304.495L196.125 331.542L198.791 340.751M31.888 63.6154C31.888 63.6154 46.3639 84.9484 49.7924 99.8053C50.872 104.483 51.6991 109.058 52.8953 113.26M69.287 155.932C69.287 155.932 66.8994 155.494 65.4775 155.932C61.153 157.262 73.4774 164.312 73.4774 164.312C65.4433 176.508 61.5823 191.496 61.9191 209.639M69.287 155.932C69.287 155.932 60.3682 139.509 52.8953 113.26M184.284 53.7164C181.567 68.5672 182.123 80.248 183.952 88.2581M183.952 88.2581C184.186 89.2857 184.436 90.2549 184.696 91.1652C190.42 111.211 189.649 144.498 189.649 144.498C189.649 144.498 195.686 138.703 199.57 140.313C204.946 142.541 190.411 153.64 190.411 153.64C190.411 153.64 206.047 155.164 207.57 158.217C209.252 161.587 202.51 169.037 206.047 167.741C210.22 166.212 220.903 175.36 220.903 175.36L224.696 180.307M183.952 88.2581C183.952 88.2581 187.86 79.6358 192.696 76.6893C205.401 68.949 203.363 113.26 203.363 113.26C203.363 113.26 219.449 97.1779 224.696 104.498C229.63 111.383 213.648 123.165 213.648 123.165C213.648 123.165 244.266 115.344 249.838 128.498C255.153 141.046 231.553 158.217 231.553 158.217C231.553 158.217 254.834 166.32 251.743 176.497C248.643 186.704 224.696 180.307 224.696 180.307M224.696 180.307L239.521 187.804L231.884 191.232L239.521 198.095M52.8953 113.26C52.8953 113.26 45.1181 111.484 40.6987 113.26C28.9049 118.001 49.8414 144.498 49.8414 144.498C49.8414 144.498 36.3608 143.465 33.0797 149.45C28.9533 156.977 46.3337 159.223 45.27 167.741C44.3053 175.467 31.9891 174.438 31.5559 182.211C31.0279 191.687 49.8414 198.217 49.8414 198.217C48.3176 199.866 46.9811 200.883 46.4129 203.163C44.8264 209.531 57.1313 207.481 61.9191 209.639M66.935 350.849L61.6018 345.135L65.4112 334.088M66.935 350.849L65.4112 349.217L73.0301 349.326M73.0301 349.326C77.1957 344.714 79.5311 342.128 83.6966 337.516M73.0301 349.326L83.6966 337.516M83.6966 337.516C87.8622 332.904 97.1286 329.545 106.553 326.469C116.041 323.372 121.726 322.339 131.696 321.897M131.696 321.897C129.762 319.22 126.743 315.04 126.743 315.04V299.421L121.029 302.85L125.601 288.755L121.029 285.326L120.697 283.516M131.696 321.897C131.808 319.478 133.486 317.648 135.886 317.326M131.696 321.897C134.991 321.752 139.739 322.646 139.739 322.646L135.886 317.326M135.886 317.326C135.886 317.326 139.212 322.766 142.206 324.35C148.373 327.612 159.505 327.612 159.505 327.612L164.855 335.611L165.981 328.374L171.314 335.611L173.772 327.993M175.124 323.802L173.772 327.993M173.772 327.993C173.772 327.993 177.432 328.68 179.542 329.163C189.41 331.421 198.791 340.751 198.791 340.751M201.077 342.209C204.945 339.085 206.881 336.34 211.313 334.088C218.404 330.485 223.721 329.783 231.503 331.421M201.077 342.209C197.358 352.027 191.553 367.351 191.553 367.351M201.077 342.209C200.184 341.639 198.791 340.751 198.791 340.751M201.077 342.209L198.791 340.751M201.077 342.209L191.553 367.351M191.553 367.351C187.533 373.141 180.802 373.493 178.982 380.303C176.966 387.849 181.725 406.404 185.077 399.351C185.553 398.351 186.04 396.684 186.04 396.684M190.361 385.515L186.04 396.684M186.04 396.684C186.04 396.684 186.435 400.683 187.744 402.779C191.684 409.088 205.671 410.133 206.791 402.779C206.926 401.896 206.865 400.493 206.865 400.493M207.504 390.849L206.865 400.493M206.865 400.493C206.865 400.493 208.656 403.671 210.601 404.684C214.693 406.815 218.291 403.658 221.648 400.493C226.533 395.889 223.143 390.033 225.458 383.732C226.752 380.208 229.409 374.97 229.409 374.97M234.551 364.182L229.409 374.97M229.409 374.97C229.409 374.97 230.759 375.318 231.624 375.541M229.409 374.97L231.624 375.541M257.789 360.373C257.789 360.373 253.934 367.888 249.789 371.039C244.695 374.912 240.458 377.177 234.17 375.992C233.292 375.826 232.472 375.821 231.624 375.541M231.624 375.541C235.749 381.5 237.767 385.102 240.695 391.732C245.783 403.251 247.62 410.423 248.695 422.969M248.695 422.969C254.863 416.861 256.429 416.142 259.718 414.086C263.007 412.031 267.941 410.572 270.819 410.572C273.697 410.572 277.906 411.638 280.662 414.086C282.998 416.162 284.074 421.324 284.074 421.324M248.695 422.969C243.786 430.11 239.627 433.328 236.124 441.255C232.901 448.548 231.172 461.064 231.172 461.064M231.172 461.064C231.172 461.064 231.636 462.109 231.934 462.778M231.172 461.064L231.934 462.778M249.027 495.989C249.027 495.989 249.425 476.031 241.789 467.418C239.691 465.052 235.694 462.085 235.694 462.085C235.694 462.085 234.152 465.155 233.027 464.371C232.426 463.952 231.842 463.505 231.934 462.778M231.934 462.778C227.024 461.365 224.441 458.6 219.362 459.159C214.733 459.669 208.666 459.835 208.696 464.492C208.704 465.719 209.87 466.385 209.458 467.54C208.757 469.501 206.101 466.883 204.125 467.54C199.08 469.218 198.465 475.383 199.934 480.492C200.93 483.953 203.473 484.86 205.648 487.73C209.388 492.664 214.242 499.492 214.791 500.682M214.791 500.682C215.34 501.872 215.648 502.54 216.198 503.73M214.791 500.682L216.198 503.73M255.884 503.608C253.837 504.196 252.707 504.717 250.932 505.894C245.656 509.39 248.418 516.833 242.932 519.989C235.672 524.164 227.827 521.413 221.98 515.418C218.433 511.781 218.326 508.342 216.198 503.73M123.745 588.866C107.957 606.752 100.475 627.062 105.427 652.945C105.427 652.945 104.257 682.475 119.522 684.183C121.444 684.398 124.074 688.195 125.998 687.992C134.821 687.062 145.427 673.516 145.427 673.516C148.787 676.136 144.671 679.359 148.093 681.897C151.514 684.436 159.14 672.754 166.759 669.707C183.502 663.01 194.351 661.3 205.648 658.574M123.745 588.866L126.412 594.776C126.412 594.776 149.776 571.03 148.887 579.538C147.999 588.046 146.297 605.138 146.602 605.442C146.906 605.747 157.649 599.728 162.982 596.681C168.316 593.633 161.459 603.157 161.459 603.157C161.459 603.157 202.767 601.173 199.934 616.871C198.791 623.205 190.792 630.585 190.792 630.585C190.792 630.585 196.587 633.608 198.41 637.061C199.759 639.615 201.272 641.739 199.934 644.299C198.702 646.658 193.839 647.347 193.839 647.347L205.648 658.574M216.198 493.063C219.824 495.987 224.148 495.489 228.124 493.063C229.92 491.967 228.858 489.895 227.743 488.111C226.628 486.327 217.916 482.955 216.198 483.921C214.48 484.887 213.2 485.784 212.886 487.73C212.506 490.09 214.201 491.456 216.056 492.949M216.198 493.063L216.056 492.949M216.198 493.063C216.15 493.025 216.103 492.987 216.056 492.949M25.0366 500.311C26.8827 500.627 28.7242 500.178 28.8404 498.656C28.9371 497.388 28.526 496.572 27.6975 495.608C26.2143 493.882 23.4983 492.767 21.9834 494.465C21.1667 495.381 21.0325 496.301 21.2215 497.513C21.3494 498.334 21.9696 499.017 22.8055 499.513M25.0366 500.311C25.3068 500.499 25.5618 500.712 25.7928 500.942C26.7947 501.936 27.3481 503.02 26.9357 504.37C26.2347 506.664 21.7697 505.82 20.8405 503.608C20.3187 502.366 20.2839 501.147 21.2215 500.18C21.6738 499.713 22.2251 499.515 22.8055 499.513M25.0366 500.311C24.3437 499.828 23.5506 499.509 22.8055 499.513M25.0366 500.311C24.2493 500.176 23.4611 499.902 22.8055 499.513M209.458 476.302C207.72 476.762 207.264 478.718 207.553 480.492C207.857 482.361 209.161 484.441 210.982 483.921C212.454 483.5 212.858 482.024 212.886 480.492C212.926 478.378 211.502 475.76 209.458 476.302ZM219.362 472.873C217.067 472.844 215.705 475.584 216.198 477.826C216.764 480.404 220.407 482.212 222.41 480.492C224.103 479.039 223.728 476.579 222.41 474.778C221.581 473.645 220.766 472.891 219.362 472.873ZM226.22 482.778C225.707 485.074 228.975 487.047 231.172 486.206C233.329 485.381 234.385 482.067 232.696 480.492C231.39 479.275 229.658 479.579 228.124 480.492C227.126 481.086 226.472 481.644 226.22 482.778ZM32.6499 498.656C32.2214 500.263 32.6406 501.373 33.4118 502.846C34.6553 505.223 36.4839 506.195 39.126 506.656C42.6096 507.263 46.0172 506.434 47.5068 503.227C48.2613 501.603 48.4274 500.364 47.8877 498.656C46.7808 495.152 42.7765 494.81 39.126 495.227C36.2829 495.553 33.387 495.891 32.6499 498.656ZM32.6499 495.227C34.3198 494.93 35.6362 494.198 36.0784 492.561C36.7904 489.924 32.5395 488.171 29.9832 489.132C28.6048 489.651 27.6068 490.355 27.3166 491.799C26.8287 494.226 30.2123 495.662 32.6499 495.227Z" stroke="#1A1B53" stroke-width="3"/>
<path d="M74.6105 233.258C75.362 238.581 76.1193 242.099 78.3916 246.972C80.9948 252.554 84.1058 256.876 87.9152 259.924C91.41 262.72 94.7723 262.67 98.2008 262.21C102.905 261.578 106.398 258.781 108.486 256.495C117.939 246.149 103.153 221.068 103.153 221.068C103.153 221.068 93.8188 202.588 85.638 206.591C67.7334 215.353 73.1585 222.972 74.6105 233.258Z" fill="#1C2135"/>
<path d="M152.295 212.306C152.905 205.39 157.359 203.652 163.724 200.877C170.679 197.846 176.025 198.274 183.152 200.877C185.437 201.712 198.39 211.544 201.437 223.353C202.478 227.387 202.175 229.92 201.437 234.02C200.7 238.12 198.771 244.305 193.818 248.496C189.863 251.843 186.199 253.734 182.39 254.21C176.295 254.972 174.009 255.353 165.628 252.305C154.738 248.345 151.152 225.258 152.295 212.306Z" fill="#1C2135"/>
<path d="M74.6105 233.258C75.362 238.581 76.1193 242.099 78.3916 246.972C80.9948 252.554 84.1058 256.876 87.9152 259.924C91.41 262.72 94.7723 262.67 98.2008 262.21C102.905 261.578 106.398 258.781 108.486 256.495C117.939 246.149 103.153 221.068 103.153 221.068C103.153 221.068 93.8188 202.588 85.638 206.591C67.7334 215.353 73.1585 222.972 74.6105 233.258Z" stroke="#1C2135" stroke-width="3"/>
<path d="M152.295 212.306C152.905 205.39 157.359 203.652 163.724 200.877C170.679 197.846 176.025 198.274 183.152 200.877C185.437 201.712 198.39 211.544 201.437 223.353C202.478 227.387 202.175 229.92 201.437 234.02C200.7 238.12 198.771 244.305 193.818 248.496C189.863 251.843 186.199 253.734 182.39 254.21C176.295 254.972 174.009 255.353 165.628 252.305C154.738 248.345 151.152 225.258 152.295 212.306Z" stroke="#1C2135" stroke-width="3"/>
<path d="M189.111 217.206C187.339 211.889 183.839 208.78 178.166 207.482C172.981 206.295 168.907 207.135 164.876 210.474C161.209 213.512 160.855 216.791 159.795 221.321C158.049 228.781 159.404 238.65 162.14 240.77C164.876 242.889 167.558 245.665 171.912 247.128C177.53 249.014 182.596 247.128 187.157 247.128C191.717 247.128 193.244 241.678 194.583 237.029C195.638 233.368 195.951 230.87 194.583 227.305C192.644 222.248 188.485 221.068 183.639 218.329C179.392 215.928 176.632 212.471 171.912 213.84C166.926 215.287 165.558 219.744 164.876 224.687C164.281 229.007 164.82 232.092 167.613 235.533C170.46 239.042 173.656 241.822 178.166 240.77C180.718 240.174 182.481 239.285 183.639 237.029C185.626 233.158 182.532 228.378 178.166 227.305C176.688 226.941 175.133 226.108 174.258 227.305C173.645 228.143 173.645 229.085 174.258 229.923M96.0815 218.329C94.097 216.576 93.5694 214.636 91 213.84C86.8412 212.552 83.7887 215.244 80.837 218.329C75.6832 223.715 79.2958 229.877 80.837 237.029C82.4928 244.713 81.9534 252.15 89.4365 255.356C94.034 257.326 98.429 258.399 102.336 255.356C105.593 252.819 105.553 249.64 105.854 245.632C106.455 237.618 102.432 232.562 96.0815 227.305C93.744 225.37 92.3932 222.329 89.4365 223.191C85.9047 224.22 88.3289 228.635 88.2638 232.167C88.1881 236.28 87.1837 239.136 89.4365 242.64C90.8518 244.84 91.893 247.735 94.518 247.128C96.6578 246.632 97.2304 244.708 97.645 242.64C98.2378 239.682 97.4883 234.539 94.518 235.533C92.3234 236.268 91.2153 238.742 92.1727 240.77" stroke="#1C2135" stroke-width="3"/>
<path d="M118.415 276.304C115.608 275.103 113.951 273.516 113.081 270.59C112.125 267.373 112.77 264.73 114.986 262.209C117.202 259.688 129.038 259.004 131.747 261.828C134.456 264.652 134.265 268.205 132.51 270.971C130.754 273.738 129.136 275.251 126.033 276.304C123.216 277.261 121.15 277.475 118.415 276.304Z" fill="#351C33" stroke="#1C2135" stroke-width="3"/>
<path d="M101.27 217.258C101.27 217.258 91.8739 204.796 84.5087 206.972C79.9678 208.314 78.0867 211.237 75.7469 215.353C71.9948 221.954 74.985 234.781 74.985 234.781L63.1757 212.687C62.7947 211.798 62.71 210.951 63.1757 210.02C64.2171 207.937 67.1129 211.798 68.5101 212.687C68.5101 212.687 71.3022 204.383 75.7469 202.02C80.2135 199.645 83.8851 200.47 88.7002 202.02C94.3397 203.836 100.51 211.544 100.51 211.544L101.27 217.258Z" fill="#1C2135"/>
<path d="M151.555 211.544L150.794 206.972C150.794 206.972 156.305 199.156 161.461 196.306C169.04 192.116 175.166 192.251 183.556 194.401C191.194 196.359 200.698 205.068 200.698 205.068C200.698 205.068 202.096 202.35 203.746 202.02C205.85 201.599 205.988 203.079 206.793 205.068C207.84 207.659 206.331 208.958 205.27 211.544C203.608 215.591 201.841 222.21 201.841 222.21C201.841 222.21 192.362 204.16 181.27 200.496C173.925 198.07 168.409 197.095 161.461 200.496C156.074 203.133 151.555 211.544 151.555 211.544Z" fill="#1C2135"/>
<path d="M77.6528 245.448C77.6528 245.448 80.852 252.973 84.5087 256.495C86.9754 258.872 88.4179 260.645 91.7478 261.448C95.1023 262.256 97.211 262.461 100.51 261.448C104.391 260.255 109.652 255.352 109.652 255.352M201.841 233.639C201.841 233.639 200.05 241.573 196.889 245.448C193.992 248.999 191.584 250.514 187.365 252.305C182.388 254.418 179.046 254.574 173.651 254.21C170.012 253.964 164.508 252.305 164.508 252.305M101.27 217.258C101.27 217.258 91.8739 204.796 84.5087 206.972C79.9678 208.314 78.0867 211.237 75.7469 215.353C71.9948 221.954 74.985 234.781 74.985 234.781L63.1757 212.687C62.7947 211.798 62.71 210.951 63.1757 210.02C64.2171 207.937 67.1129 211.798 68.5101 212.687C68.5101 212.687 71.3022 204.383 75.7469 202.02C80.2135 199.645 83.8851 200.47 88.7002 202.02C94.3397 203.836 100.51 211.544 100.51 211.544L101.27 217.258ZM151.555 211.544L150.794 206.972C150.794 206.972 156.305 199.156 161.461 196.306C169.04 192.116 175.166 192.251 183.556 194.401C191.194 196.359 200.698 205.068 200.698 205.068C200.698 205.068 202.096 202.35 203.746 202.02C205.85 201.599 205.988 203.079 206.793 205.068C207.84 207.659 206.331 208.958 205.27 211.544C203.608 215.591 201.841 222.21 201.841 222.21C201.841 222.21 192.362 204.16 181.27 200.496C173.925 198.07 168.409 197.095 161.461 200.496C156.074 203.133 151.555 211.544 151.555 211.544Z" stroke="#1C2135" stroke-width="3"/>
<path d="M78.0332 182.592C78.0332 182.592 87.2589 168.227 93.652 171.926C95.0208 172.718 96.6996 174.592 96.6996 174.592L78.0332 182.592Z" fill="#1C2135"/>
<path d="M146.604 173.449C146.604 173.449 146.117 170.369 146.604 168.497C148.534 161.076 165.27 174.592 165.27 174.592L146.604 173.449Z" fill="#1C2135"/>
<path d="M78.0332 182.592C78.0332 182.592 87.2589 168.227 93.652 171.926C95.0208 172.718 96.6996 174.592 96.6996 174.592L78.0332 182.592Z" stroke="#1C2135" stroke-width="3"/>
<path d="M146.604 173.449C146.604 173.449 146.117 170.369 146.604 168.497C148.534 161.076 165.27 174.592 165.27 174.592L146.604 173.449Z" stroke="#1C2135" stroke-width="3"/>
<path d="M148.891 203.163L157.272 195.925C157.272 195.925 151.369 192.597 148.891 194.782C146.437 196.947 148.891 203.163 148.891 203.163Z" fill="#1AAEB8"/>
<path d="M93.6543 201.258L100.892 207.734C100.892 207.734 103.198 201.996 100.892 200.115C98.6749 198.306 93.6543 201.258 93.6543 201.258Z" fill="#1AAEB8"/>
<path d="M100.892 141.069C102.416 140.764 110.67 135.862 114.606 133.45C114.606 133.45 108.556 131.665 105.464 133.45C102.458 135.184 100.892 141.069 100.892 141.069Z" fill="#1AAEB8"/>
<path d="M51.3399 111.78C51.3399 111.78 49.9684 104.236 48.4617 99.0336C44.3265 84.7532 39.0044 77.2421 31.1931 64.4961C26.8426 57.3974 21.5124 51.0326 13.102 49.6943C13.102 49.6943 9.96822 69.4575 8.99162 85.0541C7.67326 106.108 8.90675 122.03 13.5139 142.617C16.9185 157.829 18.1628 158.618 23.3809 174.276C27.0806 185.377 45.1725 205.113 45.1725 205.113C45.1725 205.113 44.7613 201.001 48.0506 198.534C48.0506 198.534 26.2591 190.311 31.193 179.21C33.4755 174.074 43.1494 174.513 44.3501 168.108C45.5509 161.704 31.193 157.007 31.193 152.073C31.193 149.572 31.9225 147.796 34.8934 145.906C39.4162 143.028 47.6394 143.439 47.6394 143.439C42.2943 136.449 33.4544 121.647 36.5381 115.48C39.6218 109.313 51.3399 111.78 51.3399 111.78Z" fill="#2B84B1"/>
<path d="M184.965 54.6285C187.07 45.9428 188.332 39.3565 192.778 31.6035C196.408 25.2722 198.667 21.4589 205.113 18.0353C218.148 11.1114 227.393 22.1125 237.83 32.5493C250.987 45.7062 260.855 78.1881 262.5 88.8782C264.144 99.5684 265.388 115.174 264.556 130.405C263.798 144.269 260.855 157.131 259.211 163.298C257.292 170.493 252.358 181.8 248.109 187.146C243.861 192.491 236.361 193.601 236.361 193.601L233.483 191.545L241.706 187.844L232.249 182.911C232.249 182.911 240.061 183.733 244.584 182.911C249.107 182.088 253.461 178.187 253.218 174.687C252.647 166.443 241.706 161.53 233.894 157.83C233.894 157.83 248.066 147.601 250.751 136.861C251.574 133.571 251.985 129.049 249.518 125.759C242.292 116.125 215.392 122.059 215.392 122.059C215.392 122.059 225.32 116.346 226.493 109.313C226.904 106.846 226.592 104.034 224.026 102.323C217.859 98.2115 204.29 110.958 204.29 110.958C204.29 110.958 205.524 86.2879 200.179 77.6535C199.008 75.7628 197.396 74.7754 195.245 74.7754C191.544 74.7754 185.377 82.5875 184.554 84.6433C184.554 84.6433 181.676 68.1968 184.965 54.6285Z" fill="#2B84B1"/>
<path d="M116.771 257.15C121.674 255.799 125.373 255.711 136.129 258.332C136.129 258.332 128.198 248.576 121.565 251.277C117.025 253.126 116.771 257.15 116.771 257.15Z" fill="#1AAEB8"/>
<path d="M168.521 554.188C168.521 554.188 194.835 537.331 200.591 537.331C200.591 537.331 226.954 532.242 235.54 543.087C244.239 554.075 236.856 565.486 232.662 578.858C224.868 603.706 211.417 616.7 188.257 628.608C173.121 636.39 159.153 628.202 145.907 638.887C133.386 648.987 124.773 659.548 126.994 675.48C127.695 680.509 130.282 685.348 130.282 685.348C137.272 682.059 145.084 672.191 145.084 672.191C150.429 673.424 145.518 681.645 149.196 681.236C152.896 680.825 155.774 675.891 159.064 673.424C171.087 664.407 190.366 660.627 200.318 658.677L200.591 658.623C221.56 654.511 238.841 645.326 253.219 636.009C260.925 631.015 267.437 626.458 271.31 622.441C288.071 605.059 293.102 565.7 282 537.33C278.352 528.006 271.817 514.744 272.133 513.483C272.955 510.194 273.366 507.316 274.6 505.671C275.559 504.392 283.645 497.448 286.523 487.58C282.422 486.886 259.715 504.073 256.097 504.849C250.341 506.083 249.108 509.372 247.874 513.895C246.128 520.297 242.818 522.94 237.595 522.94C225.671 522.94 218.682 515.95 215.804 505.26L181.267 522.118C181.267 522.118 175.922 545.143 168.521 554.188Z" fill="#003C96" fill-opacity="0.19"/>
<path d="M190.31 268.843C180.854 274.736 174.279 282.803 161.118 288.167C149.794 292.783 140.149 295.568 130.692 295.568C129.011 295.568 126.008 294.573 125.347 293.512C124.38 291.961 126.992 289.812 126.581 288.578C122.88 284.467 118.357 284.467 118.357 284.467C118.357 284.467 122.151 284.845 126.992 284.878C140.427 284.969 151.25 281.315 163.996 277.066C175.098 273.366 190.31 268.843 190.31 268.843Z" fill="#2B84B1" fill-opacity="0.51"/>
<path d="M233.893 376.978C233.893 376.978 238.383 377.52 242.117 376.567C249.817 374.601 258.974 360.943 258.974 360.943C258.974 360.943 256.869 379.386 250.751 386.846C248.518 389.569 242.939 393.835 242.939 393.835C240.061 387.257 233.893 376.978 233.893 376.978Z" fill="#2B84B1" fill-opacity="0.51"/>
<defs>
<linearGradient id="paint0_linear_361_3754" x1="14.9108" y1="462.768" x2="261.343" y2="393.555" gradientUnits="userSpaceOnUse">
<stop offset="0.186151" stop-color="#11E5ED"/>
<stop offset="1" stop-color="#1734F2"/>
</linearGradient>
</defs>
</svg>
