<svg width="41" height="49" viewBox="0 0 41 49" fill="none" xmlns="http://www.w3.org/2000/svg">
<path d="M37.4036 39.2362H3.82747C3.82747 39.2362 1 37.7828 1 34.8759C1 31.9691 4.88777 29.789 4.88777 29.789C4.88777 29.789 5.38411 22.0414 5.59463 17.0715C5.94864 8.71436 14.4305 6.89759 14.4305 6.89759C14.4305 6.89759 14.7845 1.44716 20.4388 1.44727C24.6806 1.44734 25.7403 6.89759 25.7403 6.89759C25.7403 6.89759 32.8096 7.26095 34.2227 17.0715C34.935 22.0164 35.6365 29.789 35.6365 29.789C35.6365 29.789 39.5242 32.1207 39.5242 34.8759C39.5242 37.6311 37.4036 39.2362 37.4036 39.2362Z" fill="#1C2135" stroke="#1C2135" stroke-width="2"/>
</svg>
