<svg width="51" height="47" viewBox="0 0 51 47" fill="none" xmlns="http://www.w3.org/2000/svg">
<path d="M35.2725 2.10254C38.3614 1.32119 41.4922 1.87431 44.0732 3.40625C49.1675 6.43 52.1837 13.3282 48.084 21.4053C36.1753 33.3722 35.5192 34.3737 24.6768 44.8447C15.1563 34.7073 14.2418 33.7051 2.84668 20.9531C0.788353 17.1636 0.601317 13.6114 1.5498 10.6436C2.51221 7.63235 4.66663 5.15093 7.38281 3.61035C10.0984 2.07015 13.3361 1.49172 16.4395 2.23633C19.5256 2.97684 22.5607 5.04511 24.8594 8.94727L25.6895 10.3574L26.5654 8.97461C29.0759 5.00851 32.1925 2.88162 35.2725 2.10254Z" fill="#1C2135" stroke="#060B21" stroke-width="2"/>
</svg>
