<svg width="365" height="470" viewBox="0 0 365 470" fill="none" xmlns="http://www.w3.org/2000/svg">
<path d="M128.763 354.788C128.763 354.788 129.5 332.877 137.5 326.007C138.899 324.806 136.889 310.455 138.5 311.007C160.903 318.678 184.56 335.303 190.839 333.377C207.012 328.416 214.071 323.127 225.468 301.57C244.674 265.244 248.999 279.007 248.999 279.007C248.999 398.507 250.108 363.919 202.533 402.281C167.28 430.707 165.525 465.926 165.525 465.926C165.525 465.926 122.634 416.686 128.763 354.788Z" fill="white" stroke="#1C2135" stroke-width="3"/>
<path d="M81.418 238.088C72.418 253.588 122.418 331.025 177.418 355.088C179.826 356.141 183.918 356.088 186.918 355.088C243.918 334.088 288.918 261.088 285.418 238.088C285.418 238.088 344.918 193.588 356.418 137.088C366.093 89.5548 363.612 40.0879 356.418 9.08789C354.883 2.47151 347.39 0.4262 341.422 3.66783C267.918 43.5879 219.422 165.668 219.422 165.668C200.421 157.168 174.921 153.668 144.422 165.668C144.422 165.668 126.917 84.0917 27.4217 3.66783C21.1388 -1.41079 10.7352 6.08387 9.42016 13.0878C-1.07988 69.0101 -0.00354767 91.8501 9.92134 138.591C21.9178 195.088 81.418 238.088 81.418 238.088Z" fill="white" stroke="#1C2135" stroke-width="4"/>
<path d="M100.918 217.588C112.918 196.088 128.918 184.088 128.918 184.088C120.912 138.086 80.4167 89.0859 52.918 61.5879C52.918 61.5879 64.3254 98.9592 68.914 122.586C73.5027 146.213 76.418 182.588 76.418 182.588C83.4141 198.586 100.918 217.588 100.918 217.588Z" fill="#1C2135"/>
<path d="M264.918 217.588C252.918 196.088 236.918 184.088 236.918 184.088C244.923 138.086 285.419 89.0859 312.918 61.5879C312.918 61.5879 301.511 98.9592 296.922 122.586C292.333 146.213 289.418 182.588 289.418 182.588C282.422 198.586 264.918 217.588 264.918 217.588Z" fill="#1C2135"/>
<path d="M164.918 295.588C164.918 295.588 160.376 251.499 110.918 257.076C110.918 257.076 120.507 280.884 134.133 288.996L164.918 295.588Z" fill="url(#paint0_linear_341_3457)" stroke="#1C2135" stroke-width="3"/>
<path d="M200.918 295.588C200.918 295.588 205.46 251.499 254.918 257.076C254.918 257.076 245.329 280.884 231.703 288.996L200.918 295.588Z" fill="url(#paint1_linear_341_3457)" stroke="#1C2135" stroke-width="3"/>
<ellipse cx="181.918" cy="336.588" rx="11" ry="10" fill="#1C2135"/>
<defs>
<linearGradient id="paint0_linear_341_3457" x1="137.918" y1="256.588" x2="137.918" y2="295.588" gradientUnits="userSpaceOnUse">
<stop stop-color="#01F2CF"/>
<stop offset="1" stop-color="#01D2FD"/>
</linearGradient>
<linearGradient id="paint1_linear_341_3457" x1="227.918" y1="256.588" x2="227.918" y2="295.588" gradientUnits="userSpaceOnUse">
<stop stop-color="#01F2CF"/>
<stop offset="1" stop-color="#01D2FD"/>
</linearGradient>
</defs>
</svg>
