<svg width="148" height="121" viewBox="0 0 148 121" fill="none" xmlns="http://www.w3.org/2000/svg">
<path d="M8.60413 44.4564L1 58.9417V25.6256L5.56248 2.44922L8.60413 25.6256V44.4564Z" fill="#060B21"/>
<path fill-rule="evenodd" clip-rule="evenodd" d="M25.3332 82.1181C24.581 73.2026 31.4165 63.2873 39.0206 63.2873H112.02C118.104 63.2873 124.187 73.4269 124.187 82.1181C124.187 90.8092 118.104 98.0518 112.02 98.0518H39.0206C32.9373 98.0518 26.0093 90.1321 25.3332 82.1181ZM46.6248 77.7725V82.1181V83.5666L49.6664 82.1181L46.6248 77.7725ZM101.374 77.7725V83.5666L98.3328 82.1181L101.374 77.7725Z" fill="url(#paint0_linear_134_3563)"/>
<path d="M39.0206 63.2873C31.4165 63.2873 24.581 73.2026 25.3332 82.1181C26.0093 90.1321 32.9373 98.0518 39.0206 98.0518M39.0206 63.2873C46.6248 63.2873 105.937 63.2873 112.02 63.2873M39.0206 63.2873H112.02M112.02 63.2873C118.104 63.2873 124.187 73.4269 124.187 82.1181C124.187 90.8092 118.104 98.0518 112.02 98.0518M112.02 98.0518C105.937 98.0518 45.1039 98.0518 39.0206 98.0518M112.02 98.0518H39.0206M25.3332 119.78H118.104C156.124 111.089 136.353 64.7358 134.833 63.2873C133.312 61.8387 119.624 25.6256 75.5204 25.6256C31.4165 25.6256 14.6874 58.9417 11.6458 63.2873C8.60413 67.6328 -11.1666 108.192 25.3332 119.78ZM1 58.9417L8.60413 44.4564V25.6256L5.56248 2.44922L1 25.6256V58.9417ZM46.6248 82.1181V77.7725L49.6664 82.1181L46.6248 83.5666V82.1181ZM101.374 83.5666V77.7725L98.3328 82.1181L101.374 83.5666Z" stroke="#060B21" stroke-width="2"/>
<path d="M137.875 41.9301L147 56.0439V23.5821L141.525 1L137.875 23.5821V41.9301Z" fill="#060B21" stroke="#060B21" stroke-width="2"/>
<defs>
<linearGradient id="paint0_linear_134_3563" x1="0.999999" y1="44.3056" x2="123.491" y2="91.3223" gradientUnits="userSpaceOnUse">
<stop stop-color="#00FFBB"/>
<stop offset="1" stop-color="#00D0FF"/>
</linearGradient>
</defs>
</svg>
